<mxfile host="Electron" agent="Mozilla/5.0 (Windows NT 10.0; Win64; x64) AppleWebKit/537.36 (KHTML, like Gecko) draw.io/26.0.9 Chrome/128.0.6613.186 Electron/32.2.5 Safari/537.36" version="26.0.9">
  <diagram name="Страница — 1" id="QljfcVJFZmWRaoIQy6jI">
    <mxGraphModel dx="1195" dy="1866" grid="1" gridSize="10" guides="1" tooltips="1" connect="1" arrows="1" fold="1" page="1" pageScale="1" pageWidth="827" pageHeight="1169" math="0" shadow="0">
      <root>
        <mxCell id="0" />
        <mxCell id="1" parent="0" />
        <mxCell id="91dfwV7Jj3RTRbBZ5p3v-1" value="Pair" style="swimlane;fontStyle=1;align=center;verticalAlign=top;childLayout=stackLayout;horizontal=1;startSize=26;horizontalStack=0;resizeParent=1;resizeParentMax=0;resizeLast=0;collapsible=1;marginBottom=0;whiteSpace=wrap;html=1;" parent="1" vertex="1">
          <mxGeometry x="690" y="-60" width="390" height="350" as="geometry" />
        </mxCell>
        <mxCell id="91dfwV7Jj3RTRbBZ5p3v-2" value="- first : int&lt;div&gt;- second : double&lt;br&gt;&lt;div&gt;&lt;br&gt;&lt;/div&gt;&lt;/div&gt;" style="text;strokeColor=none;fillColor=none;align=left;verticalAlign=top;spacingLeft=4;spacingRight=4;overflow=hidden;rotatable=0;points=[[0,0.5],[1,0.5]];portConstraint=eastwest;whiteSpace=wrap;html=1;" parent="91dfwV7Jj3RTRbBZ5p3v-1" vertex="1">
          <mxGeometry y="26" width="390" height="34" as="geometry" />
        </mxCell>
        <mxCell id="91dfwV7Jj3RTRbBZ5p3v-3" value="" style="line;strokeWidth=1;fillColor=none;align=left;verticalAlign=middle;spacingTop=-1;spacingLeft=3;spacingRight=3;rotatable=0;labelPosition=right;points=[];portConstraint=eastwest;strokeColor=inherit;" parent="91dfwV7Jj3RTRbBZ5p3v-1" vertex="1">
          <mxGeometry y="60" width="390" height="8" as="geometry" />
        </mxCell>
        <mxCell id="91dfwV7Jj3RTRbBZ5p3v-4" value="+ Pair()&lt;div&gt;&lt;div&gt;+ Pair(f : int, s : double)&lt;/div&gt;&lt;div&gt;+&amp;nbsp;~Pair()&lt;/div&gt;&lt;div&gt;+&amp;nbsp;getFirst() : int&lt;/div&gt;&lt;div&gt;+&amp;nbsp;getSecond(): double&lt;br&gt;&lt;/div&gt;&lt;div&gt;+&amp;nbsp;setFirst(f : int)&lt;/div&gt;&lt;div&gt;+&amp;nbsp;setSecond(s : double)&lt;br&gt;&lt;/div&gt;&lt;div&gt;+&amp;nbsp;sum() : double&lt;/div&gt;&lt;div&gt;+&amp;nbsp;operator=(t :&amp;nbsp;&lt;span style=&quot;background-color: transparent; color: light-dark(rgb(0, 0, 0), rgb(255, 255, 255));&quot;&gt;const Pair&amp;amp;&lt;/span&gt;&lt;span style=&quot;background-color: transparent; color: light-dark(rgb(0, 0, 0), rgb(255, 255, 255));&quot;&gt;) :&amp;nbsp;&lt;/span&gt;&lt;span style=&quot;background-color: transparent; color: light-dark(rgb(0, 0, 0), rgb(255, 255, 255));&quot;&gt;Pair&amp;amp;&lt;/span&gt;&lt;/div&gt;&lt;div&gt;&lt;div&gt;&lt;div&gt;+ operator-(p:&amp;nbsp;const Pair&amp;amp;) :&amp;nbsp;&lt;span style=&quot;background-color: transparent;&quot;&gt;Pair&lt;/span&gt;&lt;/div&gt;&lt;/div&gt;&lt;/div&gt;&lt;/div&gt;&lt;div&gt;&lt;div&gt;&lt;div&gt;+ operator+(f : int) :&amp;nbsp;&lt;span style=&quot;background-color: transparent;&quot;&gt;Pair&lt;/span&gt;&lt;/div&gt;&lt;div&gt;&lt;/div&gt;&lt;/div&gt;&lt;div&gt;&lt;div&gt;+ operator+(s : double) :&amp;nbsp;&lt;span style=&quot;background-color: transparent;&quot;&gt;Pair&lt;/span&gt;&lt;br&gt;&lt;/div&gt;&lt;div&gt;&lt;span style=&quot;background-color: transparent;&quot;&gt;+&amp;nbsp;&lt;/span&gt;&lt;span style=&quot;background-color: transparent;&quot;&gt;operator+=(t : double) :&amp;nbsp;&lt;/span&gt;&lt;span style=&quot;background-color: transparent;&quot;&gt;Pair&amp;amp;&lt;/span&gt;&lt;/div&gt;&lt;div&gt;&lt;div&gt;+&amp;nbsp;&lt;span style=&quot;background-color: transparent;&quot;&gt;operator&amp;gt;&amp;gt;(in : istream&amp;amp; , t : Pair&amp;amp;) :&amp;nbsp;&lt;/span&gt;&lt;span style=&quot;background-color: transparent;&quot;&gt;istream&amp;amp;&lt;/span&gt;&lt;/div&gt;&lt;div&gt;+&amp;nbsp;&lt;span style=&quot;background-color: transparent;&quot;&gt;operator&amp;lt;&amp;lt;(out : ostream&amp;amp; , t : Pair&amp;amp;) :&amp;nbsp;&lt;/span&gt;&lt;span style=&quot;background-color: transparent;&quot;&gt;ostream&amp;amp;&lt;/span&gt;&lt;span style=&quot;background-color: transparent;&quot;&gt;&lt;br&gt;&lt;/span&gt;&lt;/div&gt;&lt;div&gt;&lt;span style=&quot;background-color: transparent;&quot;&gt;+ operator+=(p :&amp;nbsp;&lt;/span&gt;&lt;span style=&quot;background-color: transparent; color: light-dark(rgb(0, 0, 0), rgb(255, 255, 255));&quot;&gt;const Pair&amp;amp;&lt;/span&gt;&lt;span style=&quot;background-color: transparent; color: light-dark(rgb(0, 0, 0), rgb(255, 255, 255));&quot;&gt;) :&amp;nbsp;&lt;/span&gt;&lt;span style=&quot;background-color: transparent;&quot;&gt;Pair&amp;amp;&lt;/span&gt;&lt;/div&gt;&lt;div&gt;&lt;span style=&quot;background-color: transparent;&quot;&gt;+&amp;nbsp;&lt;/span&gt;&lt;span style=&quot;background-color: transparent;&quot;&gt;operator&amp;gt;(other :&amp;nbsp;&lt;/span&gt;&lt;span style=&quot;background-color: transparent; color: light-dark(rgb(0, 0, 0), rgb(255, 255, 255));&quot;&gt;const Pair&amp;amp;&lt;/span&gt;&lt;span style=&quot;background-color: transparent; color: light-dark(rgb(0, 0, 0), rgb(255, 255, 255));&quot;&gt;) : bool&lt;/span&gt;&lt;/div&gt;&lt;div&gt;&lt;span style=&quot;background-color: transparent;&quot;&gt;+&amp;nbsp;&lt;/span&gt;&lt;span style=&quot;background-color: transparent;&quot;&gt;operator&amp;lt;(other :&amp;nbsp;&lt;/span&gt;&lt;span style=&quot;color: light-dark(rgb(0, 0, 0), rgb(255, 255, 255)); background-color: transparent;&quot;&gt;const Pair&amp;amp;&lt;/span&gt;&lt;span style=&quot;color: light-dark(rgb(0, 0, 0), rgb(255, 255, 255)); background-color: transparent;&quot;&gt;) : bool&lt;/span&gt;&lt;span style=&quot;background-color: transparent; color: light-dark(rgb(0, 0, 0), rgb(255, 255, 255));&quot;&gt;&lt;br&gt;&lt;/span&gt;&lt;/div&gt;&lt;div&gt;&lt;br&gt;&lt;/div&gt;&lt;/div&gt;&lt;div&gt;&lt;br&gt;&lt;/div&gt;&lt;/div&gt;&lt;div&gt;&lt;br&gt;&lt;/div&gt;&lt;/div&gt;&lt;div&gt;&lt;br&gt;&lt;/div&gt;" style="text;strokeColor=none;fillColor=none;align=left;verticalAlign=top;spacingLeft=4;spacingRight=4;overflow=hidden;rotatable=0;points=[[0,0.5],[1,0.5]];portConstraint=eastwest;whiteSpace=wrap;html=1;" parent="91dfwV7Jj3RTRbBZ5p3v-1" vertex="1">
          <mxGeometry y="68" width="390" height="282" as="geometry" />
        </mxCell>
        <mxCell id="tNfhhNi1VwKd5WDU_9ZS-5" value="" style="endArrow=diamondThin;endFill=0;endSize=24;html=1;rounded=0;entryX=0.523;entryY=-0.004;entryDx=0;entryDy=0;entryPerimeter=0;exitX=0;exitY=0.433;exitDx=0;exitDy=0;exitPerimeter=0;" parent="1" source="91dfwV7Jj3RTRbBZ5p3v-4" edge="1">
          <mxGeometry width="160" relative="1" as="geometry">
            <mxPoint x="519" y="130" as="sourcePoint" />
            <mxPoint x="440" y="130" as="targetPoint" />
          </mxGeometry>
        </mxCell>
        <mxCell id="wIn7G5tbr_BXGc94tNYa-1" value="map" style="swimlane;fontStyle=1;align=center;verticalAlign=top;childLayout=stackLayout;horizontal=1;startSize=26;horizontalStack=0;resizeParent=1;resizeParentMax=0;resizeLast=0;collapsible=1;marginBottom=0;whiteSpace=wrap;html=1;" parent="1" vertex="1">
          <mxGeometry x="40" y="-70" width="400" height="320" as="geometry" />
        </mxCell>
        <mxCell id="wIn7G5tbr_BXGc94tNYa-2" value="- data : List&amp;lt;pair&amp;lt;Key, Value&amp;gt;&amp;gt;&lt;div&gt;- size : int&lt;/div&gt;" style="text;strokeColor=none;fillColor=none;align=left;verticalAlign=top;spacingLeft=4;spacingRight=4;overflow=hidden;rotatable=0;points=[[0,0.5],[1,0.5]];portConstraint=eastwest;whiteSpace=wrap;html=1;" parent="wIn7G5tbr_BXGc94tNYa-1" vertex="1">
          <mxGeometry y="26" width="400" height="44" as="geometry" />
        </mxCell>
        <mxCell id="wIn7G5tbr_BXGc94tNYa-3" value="" style="line;strokeWidth=1;fillColor=none;align=left;verticalAlign=middle;spacingTop=-1;spacingLeft=3;spacingRight=3;rotatable=0;labelPosition=right;points=[];portConstraint=eastwest;strokeColor=inherit;" parent="wIn7G5tbr_BXGc94tNYa-1" vertex="1">
          <mxGeometry y="70" width="400" height="8" as="geometry" />
        </mxCell>
        <mxCell id="wIn7G5tbr_BXGc94tNYa-4" value="&lt;div&gt;&lt;span style=&quot;background-color: transparent; color: light-dark(rgb(0, 0, 0), rgb(255, 255, 255));&quot;&gt;+ map()&lt;/span&gt;&lt;br&gt;&lt;/div&gt;&lt;div&gt;+ map(other : const map&amp;lt;Key, Value&amp;gt;&amp;amp;)&lt;/div&gt;&lt;div&gt;+ ~map()&lt;/div&gt;&lt;div&gt;+ insert(key : Key, value : Value) : bool&lt;/div&gt;&lt;div&gt;+ operator[](key : Key) : Value&amp;amp;&lt;/div&gt;&lt;div&gt;+ at(key : Key) : const Value&amp;amp;&lt;/div&gt;&lt;div&gt;+ erase(key : Key) : bool&lt;/div&gt;&lt;div&gt;+ find(key : Key) : Iterator&amp;lt;pair&amp;lt;Key, Value&amp;gt;&amp;gt;&lt;/div&gt;&lt;div&gt;+ contains(key : Key) : bool&lt;/div&gt;&lt;div&gt;+ empty() : bool&lt;/div&gt;&lt;div&gt;+ size() : int&lt;/div&gt;&lt;div&gt;+ clear()&lt;/div&gt;&lt;div&gt;+ begin() : Iterator&amp;lt;std::pair&amp;lt;Key, Value&amp;gt;&amp;gt;&lt;/div&gt;&lt;div&gt;+ end() : Iterator&amp;lt;std::pair&amp;lt;Key, Value&amp;gt;&amp;gt;&lt;/div&gt;&lt;div&gt;+ operator=(other : const map&amp;lt;Key, Value&amp;gt;&amp;amp;) : map&amp;lt;Key, Value&amp;gt;&amp;amp;&lt;/div&gt;&lt;div&gt;+ operator==(other : const map&amp;lt;Key, Value&amp;gt;&amp;amp;) : bool&lt;/div&gt;" style="text;strokeColor=none;fillColor=none;align=left;verticalAlign=top;spacingLeft=4;spacingRight=4;overflow=hidden;rotatable=0;points=[[0,0.5],[1,0.5]];portConstraint=eastwest;whiteSpace=wrap;html=1;" parent="wIn7G5tbr_BXGc94tNYa-1" vertex="1">
          <mxGeometry y="78" width="400" height="242" as="geometry" />
        </mxCell>
      </root>
    </mxGraphModel>
  </diagram>
</mxfile>
